<svg width="127" height="126" viewBox="0 0 127 126" fill="none" xmlns="http://www.w3.org/2000/svg">
<path fill-rule="evenodd" clip-rule="evenodd" d="M61.4315 10.9198C62.0851 10.6396 62.7889 10.4951 63.5 10.4951C64.2111 10.4951 64.9149 10.6396 65.5685 10.9198L99.137 25.31C101.026 26.1199 102.636 27.4664 103.767 29.1826C104.898 30.8989 105.501 32.9093 105.5 34.9648V70.9798C105.499 77.4579 103.786 83.8207 100.535 89.4235C97.2828 95.0263 92.6078 99.67 86.9832 102.884L66.104 114.812C65.3109 115.265 64.4134 115.503 63.5 115.503C62.5866 115.503 61.6891 115.265 60.896 114.812L40.0168 102.884C34.3907 99.6691 29.7147 95.0238 26.4628 89.4189C23.2109 83.8141 21.4988 77.4492 21.5 70.9693V34.9648C21.5002 32.9102 22.1032 30.9009 23.2342 29.1857C24.3653 27.4705 25.9746 26.1248 27.863 25.3153L61.4315 10.9198ZM82.9618 56.2115C83.9181 55.2214 84.4473 53.8952 84.4353 52.5187C84.4233 51.1422 83.8712 49.8254 82.8978 48.852C81.9244 47.8786 80.6076 47.3265 79.2311 47.3145C77.8546 47.3025 76.5284 47.8317 75.5382 48.788L58.25 66.0763L51.4617 59.288C50.4716 58.3317 49.1454 57.8025 47.7689 57.8145C46.3924 57.8265 45.0756 58.3786 44.1022 59.352C43.1288 60.3254 42.5767 61.6422 42.5647 63.0187C42.5528 64.3952 43.0819 65.7214 44.0383 66.7115L54.5382 77.2115C55.5228 78.1958 56.8579 78.7487 58.25 78.7487C59.6421 78.7487 60.9772 78.1958 61.9618 77.2115L82.9618 56.2115Z" fill="#3C83F5"/>
</svg>
