<svg width="127" height="126" viewBox="0 0 127 126" fill="none" xmlns="http://www.w3.org/2000/svg">
<path d="M50.1641 22.743C56.8841 15.2933 67.4156 10.5 79.2491 10.5C99.5456 10.5 115.999 24.6015 115.999 42C115.999 52.4422 110.067 61.698 100.942 67.431L100.249 67.83V89.0925C100.249 90.1378 99.9369 91.1592 99.3528 92.0261C98.7687 92.8929 97.9391 93.5657 96.9703 93.9581C96.0015 94.3506 94.9376 94.445 93.9149 94.2291C92.8921 94.0133 91.9571 93.497 91.2296 92.7465L85.2446 86.583C90.8568 79.947 94.1591 71.799 94.1591 62.9947C94.1591 41.643 74.7446 24.171 50.1641 22.743Z" fill="#3C83F5"/>
<path d="M55.0212 93.9015L35.7695 113.747C35.0419 114.497 34.1069 115.013 33.0842 115.229C32.0614 115.445 30.9975 115.351 30.0287 114.958C29.0599 114.566 28.2304 113.893 27.6462 113.026C27.0621 112.159 26.75 111.138 26.75 110.092V88.83L26.057 88.431C16.9272 82.698 11 73.4422 11 63C11 45.6015 27.4535 31.5 47.75 31.5C68.0465 31.5 84.5 45.6015 84.5 63C84.5 77.3115 73.3647 89.397 58.1135 93.2295C57.0916 93.4923 56.0601 93.7164 55.0212 93.9015Z" fill="#3C83F5"/>
</svg>
