<svg width="127" height="126" viewBox="0 0 127 126" fill="none" xmlns="http://www.w3.org/2000/svg">
<path d="M16.25 63H21.5M63.5 15.75V21M105.5 63H110.75M29.9 29.4L33.575 33.075M97.1 29.4L93.425 33.075M51.425 89.25H75.575M47.75 84C43.3425 80.6944 40.0867 76.0857 38.444 70.8269C36.8013 65.5681 36.8548 59.9257 38.5971 54.699C40.3393 49.4723 43.6819 44.9263 48.1514 41.7049C52.6208 38.4835 57.9906 36.75 63.5 36.75C69.0094 36.75 74.3792 38.4835 78.8486 41.7049C83.3181 44.9263 86.6607 49.4723 88.4029 54.699C90.1452 59.9257 90.1987 65.5681 88.556 70.8269C86.9133 76.0857 83.6575 80.6944 79.25 84C77.2002 86.029 75.6569 88.5121 74.7448 91.2483C73.8328 93.9845 73.5776 96.8969 74 99.75C74 102.535 72.8938 105.205 70.9246 107.175C68.9555 109.144 66.2848 110.25 63.5 110.25C60.7152 110.25 58.0445 109.144 56.0754 107.175C54.1062 105.205 53 102.535 53 99.75C53.4224 96.8969 53.1672 93.9845 52.2552 91.2483C51.3431 88.5121 49.7998 86.029 47.75 84Z" stroke="#3C83F5" stroke-width="5" stroke-linecap="round" stroke-linejoin="round"/>
</svg>
