<svg width="64" height="42" viewBox="0 0 64 42" fill="none" xmlns="http://www.w3.org/2000/svg">
<g clip-path="url(#clip0_320_10829)">
<path fill-rule="evenodd" clip-rule="evenodd" d="M1.66664 12.9636C0.00946941 16.8009 -0.424123 21.0233 0.420757 25.097C1.26553 29.1705 3.35085 32.9124 6.41283 35.8493C9.47482 38.7861 13.3761 40.7862 17.6232 41.5965C21.8706 42.4068 26.2728 41.9908 30.2736 40.4015C34.2742 38.812 37.6938 36.1203 40.0995 32.667C40.1637 32.5749 40.227 32.4823 40.2896 32.3894C40.3338 32.3238 40.3776 32.2578 40.4211 32.1917V42H42.1053C46.4357 42 50.6688 40.7683 54.2693 38.4607C57.8699 36.1535 60.6762 32.8736 62.3333 29.0363C63.9906 25.1991 64.4242 20.9767 63.5792 16.903C62.7344 12.8295 60.6493 9.08763 57.5872 6.15078C54.5251 3.21383 50.6238 1.21382 46.3768 0.403562C42.1294 -0.406792 37.7272 0.00908321 33.7264 1.59854C29.7258 3.188 26.3062 5.87964 23.9005 9.33303C23.791 9.4902 23.6838 9.64874 23.5789 9.80837V1.25213e-05H21.8947C17.5643 1.25213e-05 13.3312 1.23166 9.73069 3.53919C6.13014 5.84661 3.32382 9.12637 1.66664 12.9636ZM20.2106 21V3.30434C17.1408 3.57311 14.1799 4.57346 11.6021 6.22541C8.55542 8.1779 6.18093 10.9531 4.77869 14.2C3.37645 17.4469 3.00957 21.0196 3.72442 24.4667C4.43926 27.9135 6.20376 31.0797 8.79462 33.5648C11.3856 36.0498 14.6867 37.7421 18.2805 38.4277C21.8742 39.1134 25.5992 38.7615 28.9845 37.4166C32.2338 36.1257 35.0299 33.9756 37.0494 31.221C35.5189 31.9179 33.8069 32.3078 32 32.3078C25.489 32.3078 20.2106 27.2449 20.2106 21ZM43.7894 38.6956V21C43.7894 14.755 38.511 9.69231 32 9.69231C30.1931 9.69231 28.4811 10.0822 26.9506 10.779C28.9701 8.02439 31.7662 5.87421 35.0155 4.5834C38.4008 3.23847 42.1258 2.88659 45.7195 3.57222C49.3133 4.25784 52.6144 5.95023 55.2054 8.43522C57.7963 10.9203 59.5608 14.0865 60.2755 17.5333C60.9904 20.9804 60.6235 24.5531 59.2213 27.7999C57.8192 31.0469 55.4446 33.8222 52.3979 35.7746C49.8202 37.4265 46.8592 38.4268 43.7894 38.6956ZM31.8315 29.0754C27.3144 28.9904 23.6693 25.494 23.5806 21.1616H26.7666C29.2798 21.711 31.2584 23.6085 31.8315 26.0191V29.0754ZM32.1683 29.0754C36.6854 28.9904 40.3307 25.494 40.4194 21.1616H37.2334C34.7198 21.711 32.7413 23.6088 32.1683 26.0198V29.0754ZM40.4194 20.8384C40.3307 16.506 36.6854 13.0096 32.1683 12.9247V15.9802C32.7413 18.3911 34.7197 20.2888 37.233 20.8384H40.4194ZM31.8315 12.9247C27.3146 13.0096 23.6693 16.506 23.5806 20.8384H26.767C29.2802 20.2888 31.2586 18.3913 31.8315 15.9809V12.9247Z" fill="black"/>
</g>
<defs>
<clipPath id="clip0_320_10829">
<rect width="64" height="42" fill="white"/>
</clipPath>
</defs>
</svg>
