<svg width="24" height="24" viewBox="0 0 24 24" fill="none" xmlns="http://www.w3.org/2000/svg">
<path d="M6.54202 5H13.458C13.924 5 14.31 5 14.609 5.028C14.906 5.056 15.22 5.118 15.467 5.322C15.805 5.599 15.997 6.015 16 6.451C16.002 6.767 15.86 7.051 15.699 7.309C15.536 7.569 15.299 7.882 15.009 8.263L12.419 11.677C12.173 12.001 12.092 12.111 12.036 12.228C11.981 12.3421 11.9407 12.4627 11.916 12.587C11.89 12.717 11.888 12.857 11.888 13.269V17.505C11.888 17.72 11.888 17.913 11.875 18.068C11.861 18.221 11.829 18.427 11.698 18.605C11.6152 18.7191 11.5083 18.8135 11.3849 18.8816C11.2615 18.9497 11.1247 18.9898 10.984 18.999C10.757 19.013 10.565 18.922 10.432 18.847C10.299 18.772 10.142 18.664 9.97102 18.546L8.98702 17.866L8.94502 17.837C8.74502 17.7 8.56502 17.577 8.43102 17.407C8.31354 17.2583 8.22532 17.0886 8.17102 16.907C8.11102 16.699 8.11102 16.48 8.11102 16.231V13.27C8.11102 12.858 8.11002 12.717 8.08402 12.588C8.05934 12.4637 8.01902 12.3431 7.96402 12.229C7.90802 12.112 7.82702 12.002 7.58102 11.678L5.02302 8.308L5.01702 8.298L4.99002 8.264C4.74708 7.9558 4.51722 7.63752 4.30102 7.31C4.14002 7.053 3.99802 6.768 4.00002 6.452C4.00202 6.016 4.19502 5.6 4.53302 5.322C4.78002 5.119 5.09302 5.057 5.39102 5.029C5.69002 5 6.07602 5 6.54202 5ZM6.42502 8.5L8.37702 11.072L8.40502 11.109C8.61302 11.383 8.75902 11.574 8.86402 11.791C8.95735 11.983 9.02469 12.1843 9.06602 12.395C9.11202 12.631 9.11202 12.874 9.11202 13.223V16.179C9.11202 16.509 9.11602 16.574 9.13202 16.625C9.14935 16.685 9.17669 16.7383 9.21402 16.785C9.24402 16.823 9.28902 16.86 9.55502 17.044L10.521 17.71C10.688 17.825 10.798 17.9 10.881 17.951C10.888 17.848 10.888 17.705 10.888 17.484V13.223C10.888 12.873 10.888 12.631 10.934 12.395C10.976 12.1843 11.0434 11.983 11.136 11.791C11.241 11.574 11.387 11.383 11.596 11.108L11.623 11.072L13.575 8.5H6.42502ZM14.333 7.5C14.569 7.189 14.736 6.962 14.851 6.779C14.991 6.555 15.001 6.474 15 6.456C15.0003 6.38703 14.9854 6.31884 14.9564 6.25628C14.9273 6.19372 14.8849 6.13832 14.832 6.094C14.827 6.09 14.77 6.048 14.516 6.024C14.269 6 13.93 6 13.432 6H6.56802C6.06902 6 5.73102 6 5.48402 6.024C5.23002 6.048 5.17302 6.09 5.16802 6.094C5.11517 6.13832 5.07273 6.19372 5.04369 6.25628C5.01466 6.31884 4.99975 6.38703 5.00002 6.456C5.00002 6.474 5.00902 6.556 5.14902 6.779C5.26402 6.962 5.43102 7.189 5.66702 7.5H14.333ZM16 10.5C16 10.3674 16.0527 10.2402 16.1465 10.1464C16.2402 10.0527 16.3674 10 16.5 10H19.5C19.6326 10 19.7598 10.0527 19.8536 10.1464C19.9473 10.2402 20 10.3674 20 10.5C20 10.6326 19.9473 10.7598 19.8536 10.8536C19.7598 10.9473 19.6326 11 19.5 11H16.5C16.3674 11 16.2402 10.9473 16.1465 10.8536C16.0527 10.7598 16 10.6326 16 10.5ZM14.5 13C14.5 12.8674 14.5527 12.7402 14.6465 12.6464C14.7402 12.5527 14.8674 12.5 15 12.5H19.5C19.6326 12.5 19.7598 12.5527 19.8536 12.6464C19.9473 12.7402 20 12.8674 20 13C20 13.1326 19.9473 13.2598 19.8536 13.3536C19.7598 13.4473 19.6326 13.5 19.5 13.5H15C14.8674 13.5 14.7402 13.4473 14.6465 13.3536C14.5527 13.2598 14.5 13.1326 14.5 13ZM14 15.5C14 15.3674 14.0527 15.2402 14.1465 15.1464C14.2402 15.0527 14.3674 15 14.5 15H19.5C19.6326 15 19.7598 15.0527 19.8536 15.1464C19.9473 15.2402 20 15.3674 20 15.5C20 15.6326 19.9473 15.7598 19.8536 15.8536C19.7598 15.9473 19.6326 16 19.5 16H14.5C14.3674 16 14.2402 15.9473 14.1465 15.8536C14.0527 15.7598 14 15.6326 14 15.5ZM14 18C14 17.8674 14.0527 17.7402 14.1465 17.6464C14.2402 17.5527 14.3674 17.5 14.5 17.5H17C17.1326 17.5 17.2598 17.5527 17.3536 17.6464C17.4473 17.7402 17.5 17.8674 17.5 18C17.5 18.1326 17.4473 18.2598 17.3536 18.3536C17.2598 18.4473 17.1326 18.5 17 18.5H14.5C14.3674 18.5 14.2402 18.4473 14.1465 18.3536C14.0527 18.2598 14 18.1326 14 18Z" fill="white"/>
</svg>
