<svg width="16" height="14" viewBox="0 0 16 14" fill="none" xmlns="http://www.w3.org/2000/svg">
<path d="M2.54202 0H9.45802C9.92402 0 10.31 -1.22935e-07 10.609 0.0279999C10.906 0.0559999 11.22 0.118 11.467 0.322C11.805 0.599 11.997 1.015 12 1.451C12.002 1.767 11.86 2.051 11.699 2.309C11.536 2.569 11.299 2.882 11.009 3.263L8.41902 6.677C8.17302 7.001 8.09202 7.111 8.03602 7.228C7.98102 7.34212 7.9407 7.46275 7.91602 7.587C7.89002 7.717 7.88802 7.857 7.88802 8.269V12.505C7.88802 12.72 7.88802 12.913 7.87502 13.068C7.86102 13.221 7.82902 13.427 7.69802 13.605C7.61523 13.7191 7.50834 13.8135 7.38494 13.8816C7.26154 13.9497 7.12466 13.9898 6.98402 13.999C6.75702 14.013 6.56502 13.922 6.43202 13.847C6.29902 13.772 6.14202 13.664 5.97102 13.546L4.98702 12.866L4.94502 12.837C4.74502 12.7 4.56502 12.577 4.43102 12.407C4.31354 12.2583 4.22532 12.0886 4.17102 11.907C4.11102 11.699 4.11102 11.48 4.11102 11.231V8.27C4.11102 7.858 4.11002 7.717 4.08402 7.588C4.05934 7.46375 4.01902 7.34312 3.96402 7.229C3.90802 7.112 3.82702 7.002 3.58102 6.678L1.02302 3.308L1.01702 3.298L0.990021 3.264C0.747085 2.9558 0.517215 2.63752 0.301021 2.31C0.140021 2.053 -0.00197912 1.768 2.08754e-05 1.452C0.00202088 1.016 0.195021 0.6 0.533021 0.322C0.780021 0.119 1.09302 0.0569998 1.39102 0.0289998C1.69002 -1.93715e-07 2.07602 0 2.54202 0ZM2.42502 3.5L4.37702 6.072L4.40502 6.109C4.61302 6.383 4.75902 6.574 4.86402 6.791C4.95735 6.983 5.02469 7.18433 5.06602 7.395C5.11202 7.631 5.11202 7.874 5.11202 8.223V11.179C5.11202 11.509 5.11602 11.574 5.13202 11.625C5.14935 11.685 5.17669 11.7383 5.21402 11.785C5.24402 11.823 5.28902 11.86 5.55502 12.044L6.52102 12.71C6.68802 12.825 6.79802 12.9 6.88102 12.951C6.88802 12.848 6.88802 12.705 6.88802 12.484V8.223C6.88802 7.873 6.88802 7.631 6.93402 7.395C6.97602 7.18433 7.04335 6.983 7.13602 6.791C7.24102 6.574 7.38702 6.383 7.59602 6.108L7.62302 6.072L9.57502 3.5H2.42502ZM10.333 2.5C10.569 2.189 10.736 1.962 10.851 1.779C10.991 1.555 11.001 1.474 11 1.456C11.0003 1.38703 10.9854 1.31884 10.9564 1.25628C10.9273 1.19372 10.8849 1.13832 10.832 1.094C10.827 1.09 10.77 1.048 10.516 1.024C10.269 1 9.93002 1 9.43202 1H2.56802C2.06902 1 1.73102 1 1.48402 1.024C1.23002 1.048 1.17302 1.09 1.16802 1.094C1.11517 1.13832 1.07273 1.19372 1.04369 1.25628C1.01466 1.31884 0.999747 1.38703 1.00002 1.456C1.00002 1.474 1.00902 1.556 1.14902 1.779C1.26402 1.962 1.43102 2.189 1.66702 2.5H10.333ZM12 5.5C12 5.36739 12.0527 5.24021 12.1465 5.14645C12.2402 5.05268 12.3674 5 12.5 5H15.5C15.6326 5 15.7598 5.05268 15.8536 5.14645C15.9473 5.24021 16 5.36739 16 5.5C16 5.63261 15.9473 5.75979 15.8536 5.85355C15.7598 5.94732 15.6326 6 15.5 6H12.5C12.3674 6 12.2402 5.94732 12.1465 5.85355C12.0527 5.75979 12 5.63261 12 5.5ZM10.5 8C10.5 7.86739 10.5527 7.74021 10.6465 7.64645C10.7402 7.55268 10.8674 7.5 11 7.5H15.5C15.6326 7.5 15.7598 7.55268 15.8536 7.64645C15.9473 7.74021 16 7.86739 16 8C16 8.13261 15.9473 8.25979 15.8536 8.35355C15.7598 8.44732 15.6326 8.5 15.5 8.5H11C10.8674 8.5 10.7402 8.44732 10.6465 8.35355C10.5527 8.25979 10.5 8.13261 10.5 8ZM10 10.5C10 10.3674 10.0527 10.2402 10.1465 10.1464C10.2402 10.0527 10.3674 10 10.5 10H15.5C15.6326 10 15.7598 10.0527 15.8536 10.1464C15.9473 10.2402 16 10.3674 16 10.5C16 10.6326 15.9473 10.7598 15.8536 10.8536C15.7598 10.9473 15.6326 11 15.5 11H10.5C10.3674 11 10.2402 10.9473 10.1465 10.8536C10.0527 10.7598 10 10.6326 10 10.5ZM10 13C10 12.8674 10.0527 12.7402 10.1465 12.6464C10.2402 12.5527 10.3674 12.5 10.5 12.5H13C13.1326 12.5 13.2598 12.5527 13.3536 12.6464C13.4473 12.7402 13.5 12.8674 13.5 13C13.5 13.1326 13.4473 13.2598 13.3536 13.3536C13.2598 13.4473 13.1326 13.5 13 13.5H10.5C10.3674 13.5 10.2402 13.4473 10.1465 13.3536C10.0527 13.2598 10 13.1326 10 13Z" fill="black"/>
</svg>
