<svg width="101" height="31" viewBox="0 0 101 31" fill="none" xmlns="http://www.w3.org/2000/svg">
<g clip-path="url(#clip0_240_952)">
<path fill-rule="evenodd" clip-rule="evenodd" d="M1.14582 9.56837C0.00651022 12.4007 -0.291585 15.5172 0.28927 18.5239C0.870055 21.5306 2.30371 24.2925 4.40882 26.4602C6.51394 28.6278 9.1961 30.1041 12.1159 30.7022C15.036 31.3003 18.0625 30.9932 20.8131 29.8201C23.5635 28.647 25.9145 26.6602 27.5684 24.1114C27.6125 24.0434 27.6561 23.9751 27.6991 23.9064C27.7295 23.858 27.7596 23.8093 27.7895 23.7605V31H28.9474C31.9245 31 34.8348 30.0909 37.3101 28.3877C39.7856 26.6847 41.7149 24.2638 42.8541 21.4315C43.9935 18.5993 44.2916 15.4828 43.7107 12.4761C43.1299 9.4694 41.6964 6.70754 39.5912 4.53986C37.486 2.37211 34.8039 0.895914 31.8841 0.297867C28.964 -0.300251 25.9375 0.00670427 23.1869 1.17987C20.4365 2.35304 18.0855 4.33974 16.4316 6.88867C16.3563 7.00467 16.2826 7.12169 16.2105 7.23951V9.24192e-06H15.0526C12.0755 9.24192e-06 9.16521 0.909085 6.68985 2.61226C4.21447 4.31536 2.28513 6.73613 1.14582 9.56837ZM13.8948 15.5V2.43891C11.7843 2.63729 9.74868 3.37565 7.97643 4.59494C5.88185 6.03607 4.24939 8.08447 3.28535 10.4809C2.32131 12.8775 2.06908 15.5145 2.56054 18.0587C3.05199 20.6028 4.26509 22.9398 6.0463 24.774C7.8276 26.6082 10.0971 27.8573 12.5678 28.3633C15.0385 28.8694 17.5994 28.6097 19.9268 27.617C22.1607 26.6642 24.0831 25.0772 25.4715 23.0441C24.4192 23.5584 23.2422 23.8462 22 23.8462C17.5237 23.8462 13.8948 20.1094 13.8948 15.5ZM30.1052 28.5611V15.5C30.1052 10.8906 26.4763 7.15385 22 7.15385C20.7578 7.15385 19.5808 7.44159 18.5285 7.95595C19.9169 5.92276 21.8393 4.33573 24.0732 3.38299C26.4006 2.3903 28.9615 2.13057 31.4322 2.63664C33.9029 3.14269 36.1724 4.39184 37.9537 6.226C39.735 8.06023 40.9481 10.3972 41.4394 12.9413C41.9309 15.4855 41.6787 18.1225 40.7146 20.519C39.7507 22.9155 38.1182 24.964 36.0236 26.405C34.2514 27.6243 32.2157 28.3627 30.1052 28.5611ZM21.8842 21.4604C18.7787 21.3976 16.2726 18.817 16.2117 15.6192H18.402C20.1299 16.0248 21.4901 17.4253 21.8842 19.2046V21.4604ZM22.1157 21.4604C25.2212 21.3976 27.7274 18.817 27.7883 15.6192H25.598C23.8699 16.0248 22.5096 17.4255 22.1157 19.2051V21.4604ZM27.7883 15.3808C27.7274 12.183 25.2212 9.60236 22.1157 9.53963V11.7949C22.5096 13.5743 23.8698 14.9751 25.5977 15.3808H27.7883ZM21.8842 9.53963C18.7788 9.60236 16.2726 12.183 16.2117 15.3808H18.4023C20.1301 14.9751 21.4903 13.5746 21.8842 11.7954V9.53963Z" fill="#0D141C"/>
</g>
<path d="M72.816 26H65.04V25.016L67.296 23.24V10.664L61.056 26H59.448L53.208 10.568V23.624L55.776 24.8L55.176 26H49.32V25.016L51.576 23.24V9.56L49.032 8.336L49.632 7.136H55.44L61.224 21.536L66.984 7.136H73.104V8.12L70.824 9.896V24.008L73.416 24.8L72.816 26ZM99.2301 26H91.4541V25.016L93.7101 23.24V10.664L87.4701 26H85.8621L79.6221 10.568V23.624L82.1901 24.8L81.5901 26H75.7341V25.016L77.9901 23.24V9.56L75.4461 8.336L76.0461 7.136H81.8541L87.6381 21.536L93.3981 7.136H99.5181V8.12L97.2381 9.896V24.008L99.8301 24.8L99.2301 26Z" fill="#0D141C"/>
<defs>
<clipPath id="clip0_240_952">
<rect width="44" height="31" fill="white"/>
</clipPath>
</defs>
</svg>
