<svg width="653" height="415" viewBox="0 0 653 415" fill="none" xmlns="http://www.w3.org/2000/svg">
<path d="M25.7383 394.206C25.7383 380.403 25.7383 351.727 25.7383 323.365C25.7383 316.568 25.7383 325.194 25.7383 324.463C25.7383 323.731 25.7383 313.379 59.3813 307.615C93.0242 301.851 160.31 300.988 194.973 284.585C248.725 259.148 240.849 203.379 259.135 202.517C274.92 201.772 286.203 193.812 301.456 190.753C320.76 186.883 331.531 185.97 344.17 182.48C356.585 179.052 375.029 166.835 413.208 161.999C439.78 158.633 490.884 161.554 517.535 143.87C598.042 90.4489 549.413 43.085 550.72 36.1316C551.165 32.6287 551.165 29.1782 564.104 27.4006C577.044 25.623 602.923 25.623 629.586 25.623" stroke="#3D6D9C" stroke-opacity="0.22" stroke-width="50" stroke-linecap="round"/>
</svg>
